<?xml version="1.0" encoding="UTF-8" standalone="no"?>
<!DOCTYPE svg PUBLIC "-//W3C//DTD SVG 1.1//EN" "http://www.w3.org/Graphics/SVG/1.1/DTD/svg11.dtd">
<svg width="100%" height="100%" viewBox="0 0 1080 1080" version="1.1" xmlns="http://www.w3.org/2000/svg" xmlns:xlink="http://www.w3.org/1999/xlink" xml:space="preserve" xmlns:serif="http://www.serif.com/" style="fill-rule:evenodd;clip-rule:evenodd;stroke-linecap:round;stroke-linejoin:round;stroke-miterlimit:1.5;">
    <g id="Background" transform="matrix(1.29032,0,0,1.29032,-217.419,-213.548)">
        <g id="Outline" transform="matrix(0.775,0,0,0.775,146.8,194.175)">
            <circle cx="568" cy="503" r="540" style="fill:rgb(43,54,65);stroke:rgb(44,54,65);stroke-width:1px;"/>
        </g>
        <circle id="Circle" cx="587" cy="584" r="403" style="fill:rgb(43,68,96);stroke:rgb(43,68,96);stroke-width:0.78px;stroke-linecap:butt;stroke-miterlimit:2;"/>
    </g>
    <g id="Icon" transform="matrix(1.24903,0,0,1.24903,102.837,190.273)">
        <path d="M490,280C452.871,280 417.262,294.75 391.004,321.004C364.75,347.262 350,382.871 350,420C350,457.129 364.75,492.738 391.004,518.996C417.262,545.25 452.871,560 490,560C527.129,560 562.738,545.25 588.996,518.996C615.25,492.738 630,457.129 630,420C630,382.871 615.25,347.262 588.996,321.004C562.738,294.75 527.129,280 490,280ZM491.227,508.73C467.707,508.683 445.168,499.32 428.539,482.691C411.91,466.062 402.547,443.519 402.5,420.003L423.852,420.003C423.824,441.296 433.84,461.355 450.875,474.128C467.909,486.901 489.973,490.894 510.406,484.905C530.836,478.913 547.25,463.639 554.691,443.69C562.132,423.741 559.73,401.448 548.214,383.542C536.694,365.632 517.409,354.206 496.167,352.702C474.929,351.198 454.226,359.796 440.3,375.901L463.226,371.878L466.902,392.878L410.023,402.503L400.046,345.452L421.046,341.776L424.546,361.202L424.55,361.202C444.409,338.522 474.421,327.479 504.245,331.878C534.065,336.276 559.616,355.515 572.081,382.96C584.55,410.405 582.226,442.304 565.917,467.655C549.608,493.007 521.542,508.343 491.397,508.378L491.227,508.73ZM448.176,427.531L463.227,412.48L479.329,428.582L519.227,388.684L534.278,403.735L479.329,458.684L448.176,427.531Z" style="fill:rgb(198,198,198);fill-rule:nonzero;stroke:rgb(198,198,198);stroke-width:0.8px;stroke-linecap:butt;stroke-miterlimit:2;"/>
        <path d="M330.05,64.926L297.499,0L102.549,0L102.549,111.48L557.549,111.48L557.549,64.929L330.05,64.926Z" style="fill:rgb(198,198,198);fill-rule:nonzero;stroke:rgb(198,198,198);stroke-width:0.8px;stroke-linecap:butt;stroke-miterlimit:2;"/>
        <path d="M309.93,420C310.059,378.297 324.668,337.934 351.27,305.81C377.868,273.689 414.797,251.81 455.75,243.908C496.699,236.01 539.117,242.58 575.76,262.498L589.936,149.268L70.006,149.268L107.108,446.768L312.028,446.768C310.661,437.909 309.962,428.959 309.93,419.995L309.93,420Z" style="fill:rgb(198,198,198);fill-rule:nonzero;stroke:rgb(198,198,198);stroke-width:0.8px;stroke-linecap:butt;stroke-miterlimit:2;"/>
    </g>
</svg>
